<?xml version="1.0" encoding="utf-8"?>
<!-- Generator: Adobe Illustrator 26.0.0, SVG Export Plug-In . SVG Version: 6.00 Build 0)  -->
<svg version="1.1" id="Layer_1" xmlns="http://www.w3.org/2000/svg" xmlns:xlink="http://www.w3.org/1999/xlink" x="0px" y="0px"
	 viewBox="0 0 500 533.4" style="enable-background:new 0 0 500 533.4;" xml:space="preserve">
<style type="text/css">
	.st0{fill:#CB21FF;}
</style>
<polygon class="st0" points="41.9,12.4 28.5,12.4 21.9,24 28.5,35.6 41.9,35.6 48.6,24 "/>
<polygon class="st0" points="112.7,12.4 99.4,12.4 92.7,24 99.4,35.6 112.7,35.6 119.4,24 "/>
<polygon class="st0" points="183.6,12.4 170.2,12.4 163.5,24 170.2,35.6 183.6,35.6 190.3,24 "/>
<polygon class="st0" points="254.4,12.4 241,12.4 234.4,24 241,35.6 254.4,35.6 261.1,24 "/>
<polygon class="st0" points="325.2,12.4 311.9,12.4 305.2,24 311.9,35.6 325.2,35.6 331.9,24 "/>
<polygon class="st0" points="396.1,12.4 382.7,12.4 376,24 382.7,35.6 396.1,35.6 402.7,24 "/>
<polygon class="st0" points="466.9,12.4 453.5,12.4 446.8,24 453.5,35.6 466.9,35.6 473.6,24 "/>
<polygon class="st0" points="41.9,78.3 28.5,78.3 21.9,89.9 28.5,101.4 41.9,101.4 48.6,89.9 "/>
<polygon class="st0" points="112.7,78.3 99.4,78.3 92.7,89.9 99.4,101.4 112.7,101.4 119.4,89.9 "/>
<polygon class="st0" points="183.6,78.3 170.2,78.3 163.5,89.9 170.2,101.4 183.6,101.4 190.3,89.9 "/>
<polygon class="st0" points="254.4,78.3 241,78.3 234.4,89.9 241,101.4 254.4,101.4 261.1,89.9 "/>
<polygon class="st0" points="325.2,78.3 311.9,78.3 305.2,89.9 311.9,101.4 325.2,101.4 331.9,89.9 "/>
<polygon class="st0" points="396.1,78.3 382.7,78.3 376,89.9 382.7,101.4 396.1,101.4 402.7,89.9 "/>
<polygon class="st0" points="466.9,78.3 453.5,78.3 446.8,89.9 453.5,101.4 466.9,101.4 473.6,89.9 "/>
<polygon class="st0" points="41.9,144.1 28.5,144.1 21.9,155.7 28.5,167.3 41.9,167.3 48.6,155.7 "/>
<polygon class="st0" points="112.7,144.1 99.4,144.1 92.7,155.7 99.4,167.3 112.7,167.3 119.4,155.7 "/>
<polygon class="st0" points="183.6,144.1 170.2,144.1 163.5,155.7 170.2,167.3 183.6,167.3 190.3,155.7 "/>
<polygon class="st0" points="254.4,144.1 241,144.1 234.4,155.7 241,167.3 254.4,167.3 261.1,155.7 "/>
<polygon class="st0" points="325.2,144.1 311.9,144.1 305.2,155.7 311.9,167.3 325.2,167.3 331.9,155.7 "/>
<polygon class="st0" points="396.1,144.1 382.7,144.1 376,155.7 382.7,167.3 396.1,167.3 402.7,155.7 "/>
<polygon class="st0" points="466.9,144.1 453.5,144.1 446.8,155.7 453.5,167.3 466.9,167.3 473.6,155.7 "/>
<polygon class="st0" points="41.9,210 28.5,210 21.9,221.6 28.5,233.1 41.9,233.1 48.6,221.6 "/>
<polygon class="st0" points="112.7,210 99.4,210 92.7,221.6 99.4,233.1 112.7,233.1 119.4,221.6 "/>
<polygon class="st0" points="183.6,210 170.2,210 163.5,221.6 170.2,233.1 183.6,233.1 190.3,221.6 "/>
<polygon class="st0" points="254.4,210 241,210 234.4,221.6 241,233.1 254.4,233.1 261.1,221.6 "/>
<polygon class="st0" points="325.2,210 311.9,210 305.2,221.6 311.9,233.1 325.2,233.1 331.9,221.6 "/>
<polygon class="st0" points="396.1,210 382.7,210 376,221.6 382.7,233.1 396.1,233.1 402.7,221.6 "/>
<polygon class="st0" points="466.9,210 453.5,210 446.8,221.6 453.5,233.1 466.9,233.1 473.6,221.6 "/>
<polygon class="st0" points="41.9,275.8 28.5,275.8 21.9,287.4 28.5,299 41.9,299 48.6,287.4 "/>
<polygon class="st0" points="112.7,275.8 99.4,275.8 92.7,287.4 99.4,299 112.7,299 119.4,287.4 "/>
<polygon class="st0" points="183.6,275.8 170.2,275.8 163.5,287.4 170.2,299 183.6,299 190.3,287.4 "/>
<polygon class="st0" points="254.4,275.8 241,275.8 234.4,287.4 241,299 254.4,299 261.1,287.4 "/>
<polygon class="st0" points="325.2,275.8 311.9,275.8 305.2,287.4 311.9,299 325.2,299 331.9,287.4 "/>
<polygon class="st0" points="396.1,275.8 382.7,275.8 376,287.4 382.7,299 396.1,299 402.7,287.4 "/>
<polygon class="st0" points="466.9,275.8 453.5,275.8 446.8,287.4 453.5,299 466.9,299 473.6,287.4 "/>
<polygon class="st0" points="41.9,341.7 28.5,341.7 21.9,353.3 28.5,364.8 41.9,364.8 48.6,353.3 "/>
<polygon class="st0" points="112.7,341.7 99.4,341.7 92.7,353.3 99.4,364.8 112.7,364.8 119.4,353.3 "/>
<polygon class="st0" points="183.6,341.7 170.2,341.7 163.5,353.3 170.2,364.8 183.6,364.8 190.3,353.3 "/>
<polygon class="st0" points="254.4,341.7 241,341.7 234.4,353.3 241,364.8 254.4,364.8 261.1,353.3 "/>
<polygon class="st0" points="325.2,341.7 311.9,341.7 305.2,353.3 311.9,364.8 325.2,364.8 331.9,353.3 "/>
<polygon class="st0" points="396.1,341.7 382.7,341.7 376,353.3 382.7,364.8 396.1,364.8 402.7,353.3 "/>
<polygon class="st0" points="466.9,341.7 453.5,341.7 446.8,353.3 453.5,364.8 466.9,364.8 473.6,353.3 "/>
<polygon class="st0" points="41.9,407.6 28.5,407.6 21.9,419.1 28.5,430.7 41.9,430.7 48.6,419.1 "/>
<polygon class="st0" points="112.7,407.6 99.4,407.6 92.7,419.1 99.4,430.7 112.7,430.7 119.4,419.1 "/>
<polygon class="st0" points="183.6,407.6 170.2,407.6 163.5,419.1 170.2,430.7 183.6,430.7 190.3,419.1 "/>
<polygon class="st0" points="254.4,407.6 241,407.6 234.4,419.1 241,430.7 254.4,430.7 261.1,419.1 "/>
<polygon class="st0" points="325.2,407.6 311.9,407.6 305.2,419.1 311.9,430.7 325.2,430.7 331.9,419.1 "/>
<polygon class="st0" points="396.1,407.6 382.7,407.6 376,419.1 382.7,430.7 396.1,430.7 402.7,419.1 "/>
<polygon class="st0" points="466.9,407.6 453.5,407.6 446.8,419.1 453.5,430.7 466.9,430.7 473.6,419.1 "/>
<polygon class="st0" points="41.9,473.4 28.5,473.4 21.9,485 28.5,496.6 41.9,496.6 48.6,485 "/>
<polygon class="st0" points="112.7,473.4 99.4,473.4 92.7,485 99.4,496.6 112.7,496.6 119.4,485 "/>
<polygon class="st0" points="183.6,473.4 170.2,473.4 163.5,485 170.2,496.6 183.6,496.6 190.3,485 "/>
<polygon class="st0" points="254.4,473.4 241,473.4 234.4,485 241,496.6 254.4,496.6 261.1,485 "/>
<polygon class="st0" points="325.2,473.4 311.9,473.4 305.2,485 311.9,496.6 325.2,496.6 331.9,485 "/>
<polygon class="st0" points="396.1,473.4 382.7,473.4 376,485 382.7,496.6 396.1,496.6 402.7,485 "/>
<polygon class="st0" points="466.9,473.4 453.5,473.4 446.8,485 453.5,496.6 466.9,496.6 473.6,485 "/>
</svg>
