<?xml version="1.0" encoding="utf-8"?>
<!-- Generator: Adobe Illustrator 26.0.0, SVG Export Plug-In . SVG Version: 6.00 Build 0)  -->
<svg version="1.1" id="Layer_1" xmlns="http://www.w3.org/2000/svg" xmlns:xlink="http://www.w3.org/1999/xlink" x="0px" y="0px"
	 viewBox="0 0 392 285" style="enable-background:new 0 0 392 285;" xml:space="preserve">
<style type="text/css">
	.st0{fill:#CB21FF;}
</style>
<path class="st0" d="M195.7,277.6c-56.6,0-113.1,0-169.8,0c-7.4,0-12.8-3.2-15.9-9.8c-0.8-1.8-1.3-4-1.3-6c-0.1-8.9-0.2-17.7,0-26.6
	c0.1-2.1,1.4-4.6,3-6.1c20.4-20.5,41-40.9,61.5-61.3c10.5-10.5,21.1-20.9,31.5-31.4c2.1-2.1,3.8-2.2,6.1-0.5
	c18.3,14.1,36.6,28,54.9,41.9c9,6.8,18.1,13.7,27,20.7c2.2,1.8,4.3,1.8,6.5,0.1c27.4-21,54.7-42,82.1-63.1c2.2-1.7,4-1.7,6,0.5
	c31.2,30.9,62.5,61.8,93.6,92.7c1.5,1.5,2.6,4.1,2.6,6.3c0.2,8.4-0.2,16.9,0.2,25.3c0.6,10-9,17.1-17.2,17.1
	c-38.5-0.1-77.1,0-115.7,0c-18.4,0-37,0-55.4,0C195.7,277.5,195.7,277.5,195.7,277.6z"/>
<path class="st0" d="M195.7,7.1c56.1,0,112.3,0,168.4,0c5,0,9.8,0.6,13.8,4c4.7,3.9,7.3,11.7,5.4,17.2c-0.6,1.7-2.4,3.1-3.8,4.3
	c-26.2,20.1-52.5,40.1-78.8,60.2c-33.8,25.9-67.5,51.7-101.3,77.7c-2.4,1.9-4,2-6.5,0c-26.9-20.7-54-41.2-81-61.8
	C78.5,83.2,45,57.7,11.4,32.4c-2.2-1.7-3.1-3.7-3.2-6.4c-0.4-7.4,2.4-13.2,9.1-16.3c3.1-1.4,6.7-1.8,10.2-1.9
	c26.9-0.1,54-0.1,80.9-0.2c29.2,0,58.3,0,87.5,0C195.7,7.4,195.7,7.2,195.7,7.1z"/>
<path class="st0" d="M383.9,126c0,20.9,0,41.7,0,62.6c0,1.3-0.7,2.6-1.1,3.9c-1.2-0.6-2.5-1.1-3.4-2c-17.9-17.7-35.9-35.4-53.8-53.1
	c-5.5-5.5-11.2-11.1-16.8-16.5c-2.7-2.7-2.7-3.7,0.2-5.9c17-13,33.9-26,50.9-39c6.6-5.1,13.1-10.2,19.7-15.2
	c0.8-0.6,2.1-0.7,3.1-1.1c0.4,1.1,1.1,2.1,1.1,3.2c0,18.9,0,37.8,0,56.7c0,2.2,0,4.4,0,6.6C383.7,126,383.9,126,383.9,126z"/>
<path class="st0" d="M9.5,59.2c1.3,0.8,1.9,1.1,2.4,1.4c23.9,18.2,47.8,36.5,71.7,54.8c2.6,2,2.6,3-0.2,5.7
	c-11.7,11.6-23.4,23.3-35.1,34.8c-11.9,11.8-23.7,23.7-35.7,35.5c-0.8,0.8-2,1.3-3.1,2c-0.4-1.3-1.1-2.6-1.1-3.9
	c-0.1-25,0-49.9-0.1-75c0-17.1-0.1-34.2-0.1-51.4C8.5,62,9.1,60.8,9.5,59.2z"/>
</svg>
