<?xml version="1.0" encoding="utf-8"?>
<!-- Generator: Adobe Illustrator 26.0.0, SVG Export Plug-In . SVG Version: 6.00 Build 0)  -->
<svg version="1.1" id="Layer_1" xmlns="http://www.w3.org/2000/svg" xmlns:xlink="http://www.w3.org/1999/xlink" x="0px" y="0px"
	 viewBox="0 0 71.3 100" style="enable-background:new 0 0 71.3 100;" xml:space="preserve">
<style type="text/css">
	.st0{fill:#CB21FF;}
</style>
<path class="st0" d="M35.9,78.1c-6-6.2-11.6-12.6-16.6-19.5c-3.9-5.3-7.4-10.7-10-16.8c-1.4-3.2-2.5-6.5-2.8-10
	C6,25.2,7.6,19.1,11.4,13.7C17.9,4.4,26.9,0,38.1,0.7C51.6,1.6,62.8,12.1,65,25.2c0.9,5.7,0,11-2.2,16.2c-2.8,6.7-6.7,12.7-11,18.4
	c-4.6,6.2-9.7,12-15.2,17.6C36.4,77.6,36.2,77.8,35.9,78.1z M20,29.7c0,8.8,7.2,16,16,16s16-7.2,16-16s-7.2-15.9-16-15.9
	C27.1,13.7,19.9,20.8,20,29.7z"/>
<path class="st0" d="M28,73.1c-2.4,0.5-4.5,0.9-6.7,1.5c-2.7,0.7-5.3,1.6-7.5,3.3c-0.9,0.7-1.8,1.5-2.5,2.5
	c-1.2,1.7-1.1,3.5,0.1,5.2c1,1.4,2.5,2.4,4,3.2c3.5,1.8,7.2,2.8,11.1,3.4c7.5,1.1,15,1,22.5-0.7c3.1-0.7,6.2-1.7,8.9-3.6
	c0.9-0.6,1.8-1.5,2.5-2.4c1.2-1.6,1.2-3.5,0.1-5.2c-0.9-1.4-2.2-2.4-3.7-3.2C53,75,49,74,44.8,73.4c-0.2,0-0.3,0-0.5-0.1
	c-0.1,0-0.1-0.1-0.1-0.1c0.8-1.5,1.2-1.8,2.8-1.5c5.9,0.9,11.7,2.4,16.9,5.7c1.6,1,3,2.2,4,3.8c1.7,2.7,1.6,5.4-0.3,8
	c-2,2.7-4.8,4.3-7.8,5.6C54.9,97,49.7,98,44.4,98.7c-5.1,0.6-10.2,0.6-15.3,0.2c-7-0.6-13.8-2-19.9-5.5c-1.4-0.8-2.7-1.8-3.8-2.8
	C1.6,87,1.7,82.8,5.3,79.3C8,76.7,11.4,75,14.9,74s7.1-1.7,10.7-2.5C26.9,71.2,27.1,72.5,28,73.1z"/>
<path class="st0" d="M35.9,81.8c1.2-1.3,2.1-2.3,3.1-3.3c0.2-0.2,0.7-0.5,0.9-0.4c1.5,0.5,3.1,0.9,4.6,1.6c1.8,1,1.8,2.7,0.1,3.7
	c-1.4,0.8-3.1,1.4-4.7,1.7c-3.6,0.7-7.3,0.6-10.9-0.6c-0.8-0.3-1.6-0.7-2.3-1.2c-1.4-1-1.4-2.4,0-3.3c0.9-0.6,2.1-1,3.1-1.5
	c1.6-0.7,3-0.6,4,1C34.4,80.3,35.1,80.9,35.9,81.8z"/>
</svg>
